{
  "accessors": [
    {
      "bufferView": 2,
      "componentType": 5126,
      "count": 24959,
      "max": [
        83.99198913574219,
        179.80917358398438,
        12.304829597473145
      ],
      "min": [
        -83.97547912597656,
        0.21478000283241272,
        -21.972299575805664
      ],
      "type": "VEC3"
    },
    {
      "bufferView": 2,
      "byteOffset": 299508,
      "componentType": 5126,
      "count": 24959,
      "max": [
        0.9999925494194031,
        0.9999906420707703,
        0.9999862313270569
      ],
      "min": [
        -0.999991238117218,
        -0.999960720539093,
        -0.9999938607215881
      ],
      "type": "VEC3"
    },
    {
      "bufferView": 1,
      "componentType": 5126,
      "count": 24959,
      "max": [
        0.9979000091552734,
        0.9974799752235413
      ],
      "min": [
        0.0020699999295175076,
        0.001990000018849969
      ],
      "type": "VEC2"
    },
    {
      "bufferView": 1,
      "byteOffset": 199672,
      "componentType": 5126,
      "count": 24959,
      "max": [
        0.9979000091552734,
        0.9974799752235413
      ],
      "min": [
        0.0020699999295175076,
        0.001990000018849969
      ],
      "type": "VEC2"
    },
    {
      "bufferView": 0,
      "componentType": 5125,
      "count": 120246,
      "type": "SCALAR"
    }
  ],
  "asset": {
    "extras": {
      "author": "ttl-admin (https://sketchfab.com/ttl-admin)",
      "license": "CC-BY-4.0 (http://creativecommons.org/licenses/by/4.0/)",
      "source": "https://sketchfab.com/3d-models/muscle-3c2d1c519d8941d492d7a051dcb9c230",
      "title": "muscle"
    },
    "generator": "Sketchfab-12.67.0",
    "version": "2.0"
  },
  "bufferViews": [
    {
      "buffer": 0,
      "byteLength": 480984,
      "name": "floatBufferViews",
      "target": 34963
    },
    {
      "buffer": 0,
      "byteLength": 399344,
      "byteOffset": 480984,
      "byteStride": 8,
      "name": "floatBufferViews",
      "target": 34962
    },
    {
      "buffer": 0,
      "byteLength": 599016,
      "byteOffset": 880328,
      "byteStride": 12,
      "name": "floatBufferViews",
      "target": 34962
    }
  ],
  "buffers": [
    {
      "byteLength": 1479344,
      "uri": "muscles.bin"
    }
  ],
  "extensionsRequired": [
    "KHR_materials_pbrSpecularGlossiness"
  ],
  "extensionsUsed": [
    "KHR_materials_pbrSpecularGlossiness"
  ],
  "images": [
    {
      "uri": "textures/Material.001_diffuse.jpeg"
    }
  ],
  "materials": [
    {
      "extensions": {
        "KHR_materials_pbrSpecularGlossiness": {
          "diffuseFactor": [
            1.0,
            1.0,
            1.0,
            1.0
          ],
          "diffuseTexture": {
            "index": 0
          },
          "glossinessFactor": 1.0,
          "specularFactor": [
            0.0,
            0.0,
            0.0
          ]
        }
      },
      "name": "Material.001"
    }
  ],
  "meshes": [
    {
      "name": "Model_Musculos1:Group18345_0",
      "primitives": [
        {
          "attributes": {
            "NORMAL": 1,
            "POSITION": 0,
            "TEXCOORD_0": 2,
            "TEXCOORD_1": 3
          },
          "indices": 4,
          "material": 0,
          "mode": 4
        }
      ]
    }
  ],
  "nodes": [
    {
      "children": [
        1
      ],
      "matrix": [
        1.0,
        0.0,
        0.0,
        0.0,
        0.0,
        2.220446049250313e-16,
        -1.0,
        0.0,
        0.0,
        1.0,
        2.220446049250313e-16,
        0.0,
        0.0,
        0.0,
        0.0,
        1.0
      ],
      "name": "Sketchfab_model"
    },
    {
      "children": [
        2
      ],
      "name": "Root"
    },
    {
      "children": [
        3
      ],
      "matrix": [
        1.0,
        0.0,
        0.0,
        0.0,
        0.0,
        -0.0,
        1.0,
        0.0,
        0.0,
        -1.0,
        -0.0,
        0.0,
        0.0,
        0.0,
        0.0,
        1.0
      ],
      "name": "Model_Musculos1:Group18345"
    },
    {
      "mesh": 0,
      "name": "Model_Musculos1:Group18345_0"
    }
  ],
  "samplers": [
    {
      "magFilter": 9729,
      "minFilter": 9987,
      "wrapS": 10497,
      "wrapT": 10497
    }
  ],
  "scene": 0,
  "scenes": [
    {
      "name": "Sketchfab_Scene",
      "nodes": [
        0
      ]
    }
  ],
  "textures": [
    {
      "sampler": 0,
      "source": 0
    }
  ]
}
