{
  "accessors": [
    {
      "bufferView": 2,
      "componentType": 5126,
      "count": 65534,
      "max": [
        0.38807210326194763,
        0.1504516303539276,
        0.9412773847579956
      ],
      "min": [
        -0.3453279137611389,
        -0.04474837705492973,
        -0.6263226270675659
      ],
      "type": "VEC3"
    },
    {
      "bufferView": 2,
      "byteOffset": 786408,
      "componentType": 5126,
      "count": 65534,
      "max": [
        0.9996902346611023,
        1.0,
        0.9997637867927551
      ],
      "min": [
        -0.9994586110115051,
        -0.987037181854248,
        -1.0
      ],
      "type": "VEC3"
    },
    {
      "bufferView": 1,
      "componentType": 5126,
      "count": 65534,
      "max": [
        0.993399977684021,
        0.9929999709129333
      ],
      "min": [
        0.014499999582767487,
        0.0045999884605407715
      ],
      "type": "VEC2"
    },
    {
      "bufferView": 0,
      "componentType": 5125,
      "count": 65568,
      "type": "SCALAR"
    },
    {
      "bufferView": 2,
      "byteOffset": 1572816,
      "componentType": 5126,
      "count": 65532,
      "max": [
        0.3820720911026001,
        0.14415162801742554,
        0.9412773847579956
      ],
      "min": [
        -0.34712791442871094,
        -0.0436483733355999,
        -0.6331225633621216
      ],
      "type": "VEC3"
    },
    {
      "bufferView": 2,
      "byteOffset": 2359200,
      "componentType": 5126,
      "count": 65532,
      "max": [
        0.999884843826294,
        1.0,
        0.9992760419845581
      ],
      "min": [
        -1.0,
        -0.9988561868667603,
        -1.0
      ],
      "type": "VEC3"
    },
    {
      "bufferView": 1,
      "byteOffset": 524272,
      "componentType": 5126,
      "count": 65532,
      "max": [
        1.0,
        0.9947999715805054
      ],
      "min": [
        0.0038999998942017555,
        0.004700005054473877
      ],
      "type": "VEC2"
    },
    {
      "bufferView": 0,
      "byteOffset": 262272,
      "componentType": 5125,
      "count": 65556,
      "type": "SCALAR"
    },
    {
      "bufferView": 2,
      "byteOffset": 3145584,
      "componentType": 5126,
      "count": 29845,
      "max": [
        0.3211720883846283,
        0.14995162189006805,
        0.9405773878097534
      ],
      "min": [
        -0.336127907037735,
        -0.031448375433683395,
        -0.6293225288391113
      ],
      "type": "VEC3"
    },
    {
      "bufferView": 2,
      "byteOffset": 3503724,
      "componentType": 5126,
      "count": 29845,
      "max": [
        1.0,
        1.0,
        1.0
      ],
      "min": [
        -0.9998513460159302,
        -0.976876437664032,
        -0.9995408654212952
      ],
      "type": "VEC3"
    },
    {
      "bufferView": 1,
      "byteOffset": 1048528,
      "componentType": 5126,
      "count": 29845,
      "max": [
        0.8687000274658203,
        0.989300012588501
      ],
      "min": [
        0.1670999974012375,
        0.07389998435974121
      ],
      "type": "VEC2"
    },
    {
      "bufferView": 0,
      "byteOffset": 524496,
      "componentType": 5125,
      "count": 29847,
      "type": "SCALAR"
    }
  ],
  "asset": {
    "extras": {
      "author": "Tavernier Amaury (https://sketchfab.com/svtavernier)",
      "license": "CC-BY-NC-SA-4.0 (http://creativecommons.org/licenses/by-nc-sa/4.0/)",
      "source": "https://sketchfab.com/3d-models/systeme-nerveux-humain-entier-04e4630154774717b2a9787bb37b92a0",
      "title": "Système nerveux Humain entier"
    },
    "generator": "Sketchfab-16.28.0",
    "version": "2.0"
  },
  "bufferViews": [
    {
      "buffer": 0,
      "byteLength": 643884,
      "name": "floatBufferViews",
      "target": 34963
    },
    {
      "buffer": 0,
      "byteLength": 1287288,
      "byteOffset": 643884,
      "byteStride": 8,
      "name": "floatBufferViews",
      "target": 34962
    },
    {
      "buffer": 0,
      "byteLength": 3861864,
      "byteOffset": 1931172,
      "byteStride": 12,
      "name": "floatBufferViews",
      "target": 34962
    }
  ],
  "buffers": [
    {
      "byteLength": 5793036,
      "uri": "nervous_system.bin"
    }
  ],
  "extensionsUsed": [
    "KHR_materials_specular"
  ],
  "images": [
    {
      "uri": "textures/material_0_baseColor.jpeg"
    }
  ],
  "materials": [
    {
      "doubleSided": true,
      "extensions": {
        "KHR_materials_specular": {
          "specularColorFactor": [
            1.0,
            1.0,
            1.0
          ],
          "specularFactor": 1.0
        }
      },
      "name": "material_0",
      "pbrMetallicRoughness": {
        "baseColorTexture": {
          "index": 0
        },
        "metallicFactor": 0.0
      }
    }
  ],
  "meshes": [
    {
      "name": "Object_0",
      "primitives": [
        {
          "attributes": {
            "NORMAL": 1,
            "POSITION": 0,
            "TEXCOORD_0": 2
          },
          "indices": 3,
          "material": 0,
          "mode": 4
        }
      ]
    },
    {
      "name": "Object_1",
      "primitives": [
        {
          "attributes": {
            "NORMAL": 5,
            "POSITION": 4,
            "TEXCOORD_0": 6
          },
          "indices": 7,
          "material": 0,
          "mode": 4
        }
      ]
    },
    {
      "name": "Object_2",
      "primitives": [
        {
          "attributes": {
            "NORMAL": 9,
            "POSITION": 8,
            "TEXCOORD_0": 10
          },
          "indices": 11,
          "material": 0,
          "mode": 4
        }
      ]
    }
  ],
  "nodes": [
    {
      "children": [
        1
      ],
      "matrix": [
        1.0,
        0.0,
        0.0,
        0.0,
        0.0,
        2.220446049250313e-16,
        -1.0,
        0.0,
        0.0,
        1.0,
        2.220446049250313e-16,
        0.0,
        0.0,
        0.0,
        0.0,
        1.0
      ],
      "name": "Sketchfab_model"
    },
    {
      "children": [
        2
      ],
      "name": "root"
    },
    {
      "children": [
        3
      ],
      "matrix": [
        1.0,
        0.0,
        0.0,
        0.0,
        0.0,
        2.220446049250313e-16,
        1.0,
        0.0,
        0.0,
        -1.0,
        2.220446049250313e-16,
        0.0,
        0.0,
        0.0,
        0.0,
        1.0
      ],
      "name": "GLTF_SceneRootNode"
    },
    {
      "children": [
        4,
        5,
        6
      ],
      "matrix": [
        1.0,
        0.0,
        0.0,
        0.0,
        0.0,
        0.0,
        1.0,
        0.0,
        0.0,
        -1.0,
        0.0,
        0.0,
        -0.017672089859843254,
        1.1009774208068848,
        -0.05175170674920082,
        1.0
      ],
      "name": "textured_output_0"
    },
    {
      "mesh": 0,
      "name": "Object_4"
    },
    {
      "mesh": 1,
      "name": "Object_5"
    },
    {
      "mesh": 2,
      "name": "Object_6"
    }
  ],
  "samplers": [
    {
      "magFilter": 9729,
      "minFilter": 9987,
      "wrapS": 10497,
      "wrapT": 10497
    }
  ],
  "scene": 0,
  "scenes": [
    {
      "name": "Sketchfab_Scene",
      "nodes": [
        0
      ]
    }
  ],
  "textures": [
    {
      "sampler": 0,
      "source": 0
    }
  ]
}
